<svg xmlns="http://www.w3.org/2000/svg" xmlns:xlink="http://www.w3.org/1999/xlink" width="230.121" height="83.867" viewBox="0 0 230.121 83.867">
  <defs>
    <linearGradient id="linear-gradient" x1="0.077" y1="0.64" x2="1.082" y2="0.102" gradientUnits="objectBoundingBox">
      <stop offset="0" stop-color="#ffce00"/>
      <stop offset="1" stop-color="#eabd00"/>
    </linearGradient>
    <filter id="Path_88" x="172.82" y="11.99" width="57.301" height="46.088" filterUnits="userSpaceOnUse">
      <feOffset dx="5" dy="6" input="SourceAlpha"/>
      <feGaussianBlur stdDeviation="1" result="blur"/>
      <feFlood flood-opacity="0.161"/>
      <feComposite operator="in" in2="blur"/>
      <feComposite in="SourceGraphic"/>
    </filter>
  </defs>
  <g id="Group_242739" data-name="Group 242739" transform="translate(-198.867 -87)">
    <g id="Group_54" data-name="Group 54" transform="translate(208.181 87)">
      <g id="Group_46" data-name="Group 46" transform="translate(0)">
        <path id="Path_77" data-name="Path 77" d="M773.342,941.479a4.167,4.167,0,0,1,.5,2.218,6.183,6.183,0,0,1-1.277,4.168,35.389,35.389,0,0,1-6.353,5.848A12.621,12.621,0,0,1,758.789,956a6.535,6.535,0,0,1-5.176-1.983,8.431,8.431,0,0,1-1.747-5.748,41.875,41.875,0,0,1,.941-6.722,34.868,34.868,0,0,0,.874-5.848q0-1.075-.739-1.075-.874,0-2.487,2.252a33.053,33.053,0,0,0-3.226,5.949,48.247,48.247,0,0,0-2.622,7.8Q743.328,956,738.286,956a2.6,2.6,0,0,1-2.655-1.445,14.463,14.463,0,0,1-.639-5.209q0-2.15.067-3.428l.068-5.378a116.433,116.433,0,0,1,2.117-21.578A64.853,64.853,0,0,1,743.5,900.1q4.134-7.628,9.915-7.63a5.908,5.908,0,0,1,5.008,2.656,11.5,11.5,0,0,1,1.916,6.89,29.458,29.458,0,0,1-3.966,14.083q-3.967,7.294-12.907,17.041-.2,3.5-.2,7.193a38.609,38.609,0,0,1,4.94-9.31,19.292,19.292,0,0,1,5.378-5.142,9.843,9.843,0,0,1,4.873-1.546q4.369,0,4.369,4.369a54.058,54.058,0,0,1-1.479,9.478,46.668,46.668,0,0,0-1.277,7.73q0,2.689,1.949,2.689a5.251,5.251,0,0,0,3.193-1.647,54.037,54.037,0,0,0,4.941-5.345,2.36,2.36,0,0,1,1.815-.941A1.553,1.553,0,0,1,773.342,941.479Zm-24.031-38.888a58.57,58.57,0,0,0-2.857,9.344A124.674,124.674,0,0,0,744.2,924.74a48.079,48.079,0,0,0,6.89-10.688,24.957,24.957,0,0,0,2.722-10.487,9.016,9.016,0,0,0-.47-3.294q-.471-1.142-1.344-1.143Q750.79,899.129,749.311,902.591Z" transform="translate(-734.993 -892.474)" fill="#290849"/>
        <path id="Path_78" data-name="Path 78" d="M850.93,991.8a4.166,4.166,0,0,1,.5,2.218,6.183,6.183,0,0,1-1.277,4.168,24.556,24.556,0,0,1-7.025,5.579,19.474,19.474,0,0,1-9.713,2.555q-7.058,0-10.957-3.832T818.563,992a19.441,19.441,0,0,1,1.95-8.637,15.96,15.96,0,0,1,5.411-6.353,13.609,13.609,0,0,1,7.832-2.353,8.521,8.521,0,0,1,6.251,2.318,8.427,8.427,0,0,1,2.353,6.285,10.866,10.866,0,0,1-3.327,7.966q-3.327,3.328-11.26,5.277,1.68,3.093,6.386,3.092a14.7,14.7,0,0,0,6.89-2.117,22.745,22.745,0,0,0,6.689-5.546,2.36,2.36,0,0,1,1.815-.941A1.553,1.553,0,0,1,850.93,991.8Zm-22.519-7.664a13.476,13.476,0,0,0-1.714,6.991v.135a15.274,15.274,0,0,0,6.252-2.823,5.549,5.549,0,0,0,2.285-4.369,2.924,2.924,0,0,0-.706-2.051,2.468,2.468,0,0,0-1.916-.773Q830.125,981.247,828.411,984.138Z" transform="translate(-786.163 -942.797)" fill="#290849"/>
        <path id="Path_79" data-name="Path 79" d="M916.9,941.479a4.167,4.167,0,0,1,.5,2.218,6.183,6.183,0,0,1-1.277,4.168,28.931,28.931,0,0,1-6.285,5.848,13.46,13.46,0,0,1-7.7,2.286,9.332,9.332,0,0,1-8.773-5.377q-2.858-5.377-2.857-13.915a95.6,95.6,0,0,1,2.117-18.688A63.443,63.443,0,0,1,898.885,900q4.135-7.528,9.848-7.529a5.7,5.7,0,0,1,5.075,2.992q1.848,2.992,1.849,8.57,0,8-4.437,18.553A102.746,102.746,0,0,1,899.188,943.5a7.786,7.786,0,0,0,1.546,3.932,3.642,3.642,0,0,0,2.823,1.176,7.788,7.788,0,0,0,4.84-1.58,36.89,36.89,0,0,0,5.31-5.412,2.36,2.36,0,0,1,1.815-.941A1.552,1.552,0,0,1,916.9,941.479Zm-13.141-36.77a91.592,91.592,0,0,0-3.428,13.847,100.146,100.146,0,0,0-1.613,15.864,86.647,86.647,0,0,0,7.6-15.763,43.212,43.212,0,0,0,2.823-14.419q0-5.107-1.882-5.109Q905.707,899.129,903.759,904.709Z" transform="translate(-830.22 -892.474)" fill="#290849"/>
        <path id="Path_80" data-name="Path 80" d="M973.422,941.479a4.168,4.168,0,0,1,.5,2.218,6.183,6.183,0,0,1-1.277,4.168,28.931,28.931,0,0,1-6.285,5.848,13.46,13.46,0,0,1-7.7,2.286,9.332,9.332,0,0,1-8.772-5.377q-2.858-5.377-2.857-13.915a95.574,95.574,0,0,1,2.117-18.688A63.438,63.438,0,0,1,955.407,900q4.134-7.528,9.848-7.529a5.7,5.7,0,0,1,5.075,2.992q1.848,2.992,1.849,8.57,0,8-4.437,18.553A102.73,102.73,0,0,1,955.709,943.5a7.789,7.789,0,0,0,1.547,3.932,3.641,3.641,0,0,0,2.823,1.176,7.787,7.787,0,0,0,4.84-1.58,36.866,36.866,0,0,0,5.31-5.412,2.361,2.361,0,0,1,1.815-.941A1.553,1.553,0,0,1,973.422,941.479Zm-13.142-36.77a91.59,91.59,0,0,0-3.428,13.847,100.191,100.191,0,0,0-1.614,15.864,86.614,86.614,0,0,0,7.6-15.763,43.2,43.2,0,0,0,2.823-14.419q0-5.107-1.882-5.109Q962.229,899.129,960.28,904.709Z" transform="translate(-864.828 -892.474)" fill="#290849"/>
        <path id="Path_81" data-name="Path 81" d="M1036.38,986.115a4.658,4.658,0,0,1,.471,2.218q0,3.227-1.949,3.832a30.629,30.629,0,0,1-8.873,1.614,16.777,16.777,0,0,1-5.042,9.041,12.4,12.4,0,0,1-8.537,3.395,11.924,11.924,0,0,1-6.891-1.949,12.368,12.368,0,0,1-4.335-5.176,16.571,16.571,0,0,1-1.479-6.991,20.521,20.521,0,0,1,1.949-9.108,15.316,15.316,0,0,1,5.377-6.252,13.546,13.546,0,0,1,7.6-2.252,10.47,10.47,0,0,1,8.235,3.529,15.119,15.119,0,0,1,3.663,8.705,40.692,40.692,0,0,0,7.529-1.345,3.953,3.953,0,0,1,.941-.135A1.469,1.469,0,0,1,1036.38,986.115Zm-19.662,11.226a9.71,9.71,0,0,0,2.117-5.041,9.269,9.269,0,0,1-3.193-3.7,10.941,10.941,0,0,1-1.109-4.84,11.646,11.646,0,0,1,.2-2.151h-.336a5.277,5.277,0,0,0-4.47,2.588q-1.783,2.589-1.781,7.293a9.37,9.37,0,0,0,1.445,5.646,4.171,4.171,0,0,0,3.395,1.95A4.873,4.873,0,0,0,1016.718,997.341Z" transform="translate(-897.101 -942.69)" fill="#290849"/>
        <path id="Path_82" data-name="Path 82" d="M1098.521,964.472a5.942,5.942,0,0,1-1.512-4.235,6.757,6.757,0,0,1,1.714-4.84,7.439,7.439,0,0,1,9.276-.37,5.637,5.637,0,0,1,1.513,4.269,6.9,6.9,0,0,1-1.748,4.94,6.25,6.25,0,0,1-4.773,1.849A5.836,5.836,0,0,1,1098.521,964.472Zm4.807-15.058a2.129,2.129,0,0,1-.874-1.883l.068-.537q1.141-7.528,3.092-17.141t3.63-16.6q1.074-4.3,5.848-4.3,4.3,0,4.3,2.756a5.163,5.163,0,0,1-.2,1.345q-1.749,7.126-4.638,17.242t-5.512,17.578q-.741,2.152-3.5,2.151A3.805,3.805,0,0,1,1103.328,949.414Z" transform="translate(-956.655 -902.56)" fill="#290849"/>
      </g>
    </g>
    <g id="Group_55" data-name="Group 55" transform="translate(199 159.315)">
      <path id="Path_83" data-name="Path 83" d="M711.313,1090.058c27.217-7.484,55.54-10.631,83.725-11.053,6.925-.047,14.248.119,21.182.484a275.551,275.551,0,0,1,52.3,7.74c2.937.691,7.271,1.995,10.185,2.829-3-.606-7.384-1.589-10.345-2.108-9.251-1.806-19.287-3.216-28.65-4.239-42.789-4.293-86.19-1.731-128.4,6.347Z" transform="translate(-711.313 -1078.997)" fill="#290849" stroke="rgba(0,0,0,0)" stroke-width="1"/>
    </g>
    <g transform="matrix(1, 0, 0, 1, 198.87, 87)" filter="url(#Path_88)">
      <path id="Path_88-2" data-name="Path 88" d="M192.042,346.861v-.129a5.421,5.421,0,0,1,5.572-5.159l34.359-3.342c.257-.025.49-.037.713-.037a5.241,5.241,0,0,1,.75.052,5.309,5.309,0,0,1,4.768,5.046l1.209,20.474v.046a5.429,5.429,0,0,1-5.653,5.159h-.035l-30.755-1.4-12.856,7.712,5.417-11.47Z" transform="translate(-17.29 -326.2)" fill="url(#linear-gradient)"/>
    </g>
    <path id="Path_90" data-name="Path 90" d="M190.448,346.861v-.129a5.421,5.421,0,0,1,5.572-5.159l34.359-3.342c.257-.025.49-.037.713-.037a5.241,5.241,0,0,1,.75.052,5.309,5.309,0,0,1,4.768,5.046l1.209,20.474v.046a5.429,5.429,0,0,1-5.653,5.159h-.035l-30.755-1.4-13.866,8.708,6.426-12.466Z" transform="translate(183.168 -239.204)" fill="none" stroke="#fff" stroke-width="1"/>
    <path id="Path_266763" data-name="Path 266763" d="M1.8-1.242A4.468,4.468,0,0,1,.442-4.589,4.468,4.468,0,0,1,1.8-7.937,4.587,4.587,0,0,1,5.122-9.256a4.688,4.688,0,0,1,2.7.806A4.2,4.2,0,0,1,9.477-6.214H6.825a1.746,1.746,0,0,0-1.664-1,2.323,2.323,0,0,0-1.8.715A2.715,2.715,0,0,0,2.7-4.589a2.715,2.715,0,0,0,.657,1.911,2.323,2.323,0,0,0,1.8.715,1.746,1.746,0,0,0,1.664-1H9.477A4.2,4.2,0,0,1,7.826-.728a4.688,4.688,0,0,1-2.7.806A4.587,4.587,0,0,1,1.8-1.242ZM13.13-3.549V0H10.907V-9.126h3.6a3.5,3.5,0,0,1,2.47.819,2.6,2.6,0,0,1,.884,1.976,2.843,2.843,0,0,1-.481,1.547,2.625,2.625,0,0,1-1.573,1.066L18.044,0h-2.6L13.39-3.549Zm0-3.887v2.2h1.378a1.067,1.067,0,0,0,.8-.3,1.077,1.077,0,0,0,.292-.786,1.108,1.108,0,0,0-.3-.8,1.048,1.048,0,0,0-.793-.312Zm16.8-1.69V0H27.7V-5.148L25.584,0H23.933L21.814-5.148V0H19.591V-9.126h2.548l2.626,6.292,2.613-6.292Z" transform="translate(382.176 118.344)" fill="#290849"/>
  </g>
</svg>
